<svg id="Arco" xmlns="http://www.w3.org/2000/svg" viewBox="0 0 95.61 148.56"><defs><style>.cls-1,.cls-4{stroke:#fff;}.cls-1,.cls-11,.cls-12,.cls-13,.cls-14,.cls-15,.cls-2,.cls-3,.cls-4,.cls-5,.cls-6,.cls-7,.cls-8,.cls-9{stroke-miterlimit:10;}.cls-1,.cls-12,.cls-4,.cls-5,.cls-6{stroke-width:0.5px;}.cls-15,.cls-2{fill:none;}.cls-11,.cls-12,.cls-13,.cls-14,.cls-15,.cls-2,.cls-3,.cls-5,.cls-6,.cls-7,.cls-8,.cls-9{stroke:#000;}.cls-2,.cls-3{stroke-width:2px;}.cls-13,.cls-3,.cls-6{fill:#fff;}.cls-4,.cls-7{fill:#c1272d;}.cls-5{opacity:0.19;}.cls-13,.cls-8,.cls-9{stroke-width:0.25px;}.cls-9{font-size:11px;font-family:BankGothic Lt BT;}.cls-10{letter-spacing:-1.74px;}.cls-11{fill:#ff0;}.cls-12{fill:#f2db0c;}.cls-14{stroke-width:0.75px;}</style></defs><title>Carabobo FC</title><path class="cls-1" d="M167.05,45.12c1.94-.53,4.64.63,4.41,3a3.69,3.69,0,0,1-.65,1.2c0,0.13,0,1.48,0,1.48h1.57v1.36h1.13V53.8h1.24l0.11,1.92,1.58,0.23v1.92h-1.24l-1,.79v1.13c17.39,2.82,23,20.78,23,20.78L198.34,79v-3.5c-2.15-1.24-.56-4.29-0.56-4.29-0.45-.68,4.4-7.34,4.4-7.34v-10h1.92V64c1.47-.23,5.31,7.11,5.31,7.11-0.07,1.06.2,2.31-.3,3.28-0.2.39-1.39,1.19-1.39,1.58v2.59l3.73,3v4.74h3.16v1.13l-3.16,4.18,1.36,24.5H193.15v-1s-3.84-2.37-.11-10.61l0.11-1.24s-8.47-8.36-6.1-17.39c0,0,2.37-9.6-10.16-13.89a13.32,13.32,0,0,1-9.84,3.73h0A13.32,13.32,0,0,1,157.21,72C144.68,76.27,147,85.87,147,85.87c2.37,9-6.1,17.39-6.1,17.39l0.11,1.24c3.73,8.24-.11,10.61-0.11,10.61v1H121.3l1.36-24.5-3.16-4.18V86.32h3.16V81.58l3.73-3V75.94c0-.38-1.19-1.19-1.39-1.58-0.5-1-.23-2.22-0.3-3.28,0,0,3.84-7.34,5.31-7.11V53.8h1.92v10s4.86,6.66,4.4,7.34c0,0,1.58,3-.56,4.29V79l1.13,1.58s5.65-18,23-20.78V58.66l-1-.79h-1.24V55.95l1.58-.23,0.11-1.92h1.24V52.11h1.13V50.75h1.57s0-1.35,0-1.48a3.69,3.69,0,0,1-.65-1.2c-0.24-2.32,2.46-3.48,4.41-3" transform="translate(-119.25 -19.72)"/><path class="cls-2" d="M145.53,81.55q1.37-.74,2.79-1.39" transform="translate(-119.25 -19.72)"/><path class="cls-2" d="M121.68,121.51a45.59,45.59,0,0,1,.89-9" transform="translate(-119.25 -19.72)"/><path class="cls-2" d="M211.53,112.51a45.38,45.38,0,1,1-89.86,9" transform="translate(-119.25 -19.72)"/><path class="cls-2" d="M211.53,112.51" transform="translate(-119.25 -19.72)"/><path class="cls-2" d="M185.75,80.16q1.43,0.65,2.8,1.39" transform="translate(-119.25 -19.72)"/><rect class="cls-3" x="3.61" y="96.03" width="88.15" height="10.84"/><path class="cls-4" d="M141,115.75s3-3.91,1.72-5.5c0,0,.77-0.83-1.61-5.75L141,103.26s8.58-8.4,6.32-16.33l-0.37-2.09,0.19-3,1.67-.8-0.89-1.6s3.47-5.73,9.22-7c0,0,6.31,4.42,9.95,3.29h0c3.64,1.13,9.95-3.29,9.95-3.29,5.75,1.25,9.22,7,9.22,7L185.33,81,187,81.8l0.19,3-0.37,2.09c-2.26,7.93,6.32,16.33,6.32,16.33L193,104.5c-2.38,4.92-1.61,5.75-1.61,5.75-1.32,1.59,1.72,5.5,1.72,5.5" transform="translate(-119.25 -19.72)"/><line class="cls-5" x1="34.68" y1="96.03" x2="47.65" y2="96.03"/><line class="cls-5" x1="21.7" y1="96.03" x2="34.68" y2="96.03"/><path class="cls-6" d="M228.75,162.5" transform="translate(-119.25 -19.72)"/><path class="cls-6" d="M188.2,146" transform="translate(-119.25 -19.72)"/><path class="cls-6" d="M150.05,158.22" transform="translate(-119.25 -19.72)"/><path class="cls-7" d="M122.85,127.5s4.5,29.22,31.07,36c0.72,0.18-7.92-5-7.25-18.65S163.13,127,163.13,127H122.85" transform="translate(-119.25 -19.72)"/><path class="cls-7" d="M179.13,164.25s9.23-7.35,8.3-16.86c0,0,1-14-14.81-20.4H211S208.75,155.25,179.13,164.25Z" transform="translate(-119.25 -19.72)"/><path class="cls-2" d="M121.68,121.51" transform="translate(-119.25 -19.72)"/><polygon class="cls-8" points="72.56 107.52 72.56 138.49 80.03 132.34 80.03 107.52 72.56 107.52"/><polygon class="cls-8" points="22.75 107.27 22.71 138.49 14.25 130.78 14.25 107.27 22.75 107.27"/><text class="cls-9" transform="translate(3.61 104.45) scale(1.15 1)">Ca<tspan x="15.15" y="0">r</tspan><tspan x="22.09" y="0">abobo</tspan><tspan class="cls-10" x="58.07" y="0">F</tspan><tspan x="63.21" y="0">.C</tspan></text><path class="cls-11" d="M154.09,115.63a13,13,0,1,1,25.92,0" transform="translate(-119.25 -19.72)"/><polygon class="cls-12" points="51.41 9.29 52.09 14.2 47.78 11.76 43.32 13.94 44.31 9.07 40.86 5.51 45.79 4.94 48.12 0.56 50.18 5.08 55.06 5.94 51.41 9.29"/><circle class="cls-13" cx="47.8" cy="127.66" r="19.69"/><path class="cls-14" d="M153.17,133.41l3.38,0.39-6.08,3.67-0.58,6.66-1.64-2.51S148,139.11,153.17,133.41Z" transform="translate(-119.25 -19.72)"/><path class="cls-14" d="M157.12,133.41l7.24-1.35,2.79-3.67,2.72,3.57,7.43,2.22-5.4,1.74A1,1,0,0,0,172,137c0.39,0.68,1.64,6.47,1.64,6.47L168,139.2s-0.58-1.45-2.22,0L160.6,143l1.93-6.47s0.58-.48-0.29-1.16Z" transform="translate(-119.25 -19.72)"/><path class="cls-14" d="M150.27,144.58l3.76,3.77a1.23,1.23,0,0,0,1.54,0l4.83-4.93-1.16,7.05a1.2,1.2,0,0,0,.58,1.35l6.56,2.71-6.66,1.84s-0.77-.19-0.48,1.45l0.87,4.83-4.83-5s-0.1-1.16-2-.77l-3-.58L152,153a1.2,1.2,0,0,0,0-1.5Z" transform="translate(-119.25 -19.72)"/><path class="cls-14" d="M167.15,154.84l5.9-2.22s2.12-.68,1.35-2l-0.77-7.14,4.83,5.21a1,1,0,0,0,1.45.48l3.76-3.47L182,151.84a2.19,2.19,0,0,0-.19,2c0.48,1.06,1.83,3.28,1.83,3.28l-3.76.39a1.6,1.6,0,0,0-1.74.68l-5,4.92,1.06-4.73s1.06-1.54-1.16-2Z" transform="translate(-119.25 -19.72)"/><path class="cls-14" d="M181.54,134.28H178l4.63,2.9a4.88,4.88,0,0,1,1.54,3.86l0,3.86,1.71-2.85S185.69,138,181.54,134.28Z" transform="translate(-119.25 -19.72)"/><path class="cls-14" d="M162.09,166.83l-1.93-3.28,4.83,2.61s0.39,0.87,3,0l4.63-2-1.64,2.7S169.52,168.28,162.09,166.83Z" transform="translate(-119.25 -19.72)"/><path class="cls-15" d="M146.67,147.38s0.41,19,19.71,20.4c0,0,16.89.89,21-18.29,0,0,.31-21.16-20.3-22.49C167.12,127,147.71,128.12,146.67,147.38Z" transform="translate(-119.25 -19.72)"/></svg>